<svg xmlns="http://www.w3.org/2000/svg" width="199" height="44" viewBox="0 0 199 44" fill="none">
    <path d="M34.7333 15.9973V28.9446C34.7333 34.6516 30.1056 39.278 24.3999 39.278H12.2543C8.1056 39.278 4.5266 36.832 2.8816 33.3046C2.24579 31.9392 1.91751 30.4508 1.91994 28.9446V15.9973C1.91994 10.2903 6.54727 5.66396 12.2533 5.66396H24.3999C26.3364 5.66055 28.2343 6.20457 29.8749 7.23329C32.7933 9.05996 34.7333 12.3026 34.7333 15.9973Z" fill="#0A5FFF"></path>
    <path d="M34.7333 15.9973V23.4213C30.6622 30.2497 24.7044 35.756 17.5769 39.2773H12.2543C8.1056 39.2773 4.5266 36.8313 2.8816 33.304C2.24589 31.9387 1.9176 30.4506 1.91993 28.9446V15.9973C1.91993 10.2903 6.54727 5.66396 12.2533 5.66396H24.3999C26.3364 5.66055 28.2343 6.20457 29.8749 7.23329C32.7933 9.05996 34.7333 12.3026 34.7333 15.9973Z" fill="#5C94FF"></path>
    <path d="M24.3999 5.66461C26.3363 5.661 28.2343 6.20479 29.8749 7.23327C25.6273 19.7063 15.5443 29.4813 2.8816 33.3039C2.24589 31.9387 1.9176 30.4506 1.91993 28.9446V15.9973C1.91993 10.2903 6.54727 5.66394 12.2533 5.66394L24.3999 5.66461Z" fill="#337AFF"></path>
    <path d="M12.2543 5.66467H18.8509C14.951 12.7294 9.0643 18.4949 1.91992 22.247V15.9973C1.91992 10.2903 6.54725 5.66467 12.2543 5.66467Z" fill="#0A5FFF"></path>
    <path d="M23.5347 14.9999C24.0865 14.9759 24.5532 15.4038 24.5772 15.9556L24.9129 23.6759C24.9244 23.9408 24.8302 24.1995 24.651 24.395L21.3121 28.0375L17.8198 31.8473C17.2178 32.504 16.1222 32.1051 16.0836 31.215L15.8347 25.4924C15.8108 24.9406 15.344 24.5128 14.7922 24.5367L9.07005 24.7855C8.17998 24.8242 7.68745 23.7675 8.28945 23.1107L11.7814 19.3014L15.1203 15.659C15.2995 15.4634 15.549 15.3471 15.814 15.3356L23.5347 14.9999Z" fill="white"></path>
    <path d="M65.7938 25.469C65.7938 27.4486 65.2036 28.9486 64.0232 29.9689C62.9188 30.9065 61.4147 31.3752 59.5109 31.3752H52V13.1879H59.2824C60.5443 13.1678 61.7707 13.6447 62.738 14.5316C63.2601 14.9933 63.6783 15.5799 63.9605 16.2463C64.2428 16.9127 64.3815 17.6411 64.3659 18.3754C64.379 19.4161 64.0666 20.4305 63.4806 21.2503C65.0228 22.2713 65.7939 23.6775 65.7938 25.469ZM61.1674 18.3754C61.1665 18.147 61.1187 17.9217 61.0277 17.7162C60.9366 17.5106 60.8046 17.3301 60.6413 17.1878C60.2539 16.8407 59.763 16.6626 59.2629 16.6878H55.1986V20.3128H59.2628C59.7497 20.3074 60.2167 20.1009 60.5703 19.7347C60.7555 19.5706 60.9051 19.3635 61.0084 19.1285C61.1117 18.8934 61.1659 18.6362 61.1674 18.3754ZM62.5953 25.469C62.5953 25.1151 62.4056 24.761 62.0263 24.4065C61.4382 23.8649 60.5184 23.5941 59.2669 23.5941H55.1986V27.8752H59.4659C60.4708 27.8752 61.2105 27.7398 61.6849 27.4689C62.2919 27.094 62.5953 26.4274 62.5953 25.469Z" fill="#12141c"></path>
    <path d="M76.8459 18.4378C76.8612 18.8652 76.74 19.2851 76.5031 19.6253C76.3812 19.805 76.2215 19.95 76.0376 20.0479C75.8536 20.1458 75.6509 20.1938 75.4464 20.1878C75.3028 20.1828 75.1597 20.1672 75.0181 20.1409C74.8764 20.1147 74.7333 20.099 74.5896 20.094C73.7277 20.0887 72.8905 20.4088 72.2193 21.0003C71.8758 21.2794 71.5964 21.6421 71.4031 22.0597C71.2098 22.4773 71.1079 22.9384 71.1054 23.4065V29.6252C71.1193 29.866 71.0842 30.1072 71.0027 30.3314C70.9212 30.5557 70.7954 30.7574 70.6342 30.922C70.3236 31.2228 69.9209 31.3846 69.5061 31.3752C69.1059 31.3908 68.7161 31.2337 68.4209 30.9377C68.2489 30.7767 68.1132 30.5746 68.024 30.347C67.9349 30.1194 67.8948 29.8725 67.9069 29.6252V18.6566C67.902 18.422 67.9432 18.189 68.0277 17.9733C68.1123 17.7576 68.2382 17.5644 68.3969 17.4066C68.7154 17.0768 69.1395 16.8973 69.5779 16.9066C69.7878 16.9073 69.9946 16.9613 70.1822 17.0643C70.3697 17.1673 70.5329 17.3165 70.6588 17.5002C70.9828 17.9886 71.1408 18.5855 71.1056 19.1878V19.2503C71.2422 18.7215 71.4949 18.2373 71.8416 17.8397C72.1883 17.4421 72.6185 17.1432 73.0948 16.969C73.6389 16.7363 74.2159 16.6094 74.7999 16.594C75.058 16.5931 75.3154 16.6246 75.567 16.6878C76.4192 16.9173 76.8455 17.5006 76.8459 18.4378Z" fill="#12141c"></path>
    <path d="M87.9554 31.4065H80.7585C79.2735 31.4065 78.0883 30.9534 77.203 30.0473C76.3177 29.1411 75.875 27.865 75.875 26.219C75.875 24.4277 76.452 23.0736 77.6059 22.1566C78.5893 21.3441 79.8947 20.9378 81.522 20.9379C82.1287 20.9663 82.7211 21.1481 83.2529 21.4691C83.9905 21.8651 84.4728 22.3547 84.7 22.9378C84.7404 22.7431 84.7595 22.5438 84.7567 22.3442C84.7567 21.0941 84.183 20.3128 83.0355 20.0005C82.9414 19.9799 82.537 19.9382 81.8223 19.8754C81.4219 19.839 81.0351 19.6998 80.6932 19.4691C80.4861 19.2984 80.3192 19.0761 80.2064 18.8207C80.0935 18.5653 80.038 18.2841 80.0444 18.0005C80.0444 16.9174 80.7298 16.3757 82.1006 16.3754C83.7378 16.3754 85.0896 16.8129 86.156 17.6879C87.3555 18.6674 87.9553 20.0215 87.9552 21.7504L87.9554 31.4065ZM84.7568 27.9066V26.5317C84.7568 25.8025 84.3761 25.2296 83.6145 24.8129C82.9783 24.4567 82.2728 24.2745 81.5582 24.2817C79.9018 24.2817 79.0737 24.9274 79.0737 26.219C79.0737 27.3441 79.7686 27.9066 81.1584 27.9065L84.7568 27.9066Z" fill="#12141c"></path>
    <path d="M102.863 29.6251C102.877 29.8673 102.84 30.1097 102.756 30.3343C102.672 30.5589 102.543 30.7597 102.378 30.9219C102.07 31.2175 101.673 31.3788 101.264 31.375C100.849 31.3844 100.446 31.2223 100.136 30.9211C99.9744 30.7556 99.8485 30.5532 99.7671 30.3283C99.6856 30.1034 99.6506 29.8616 99.6645 29.6201V22.1306C99.6645 20.856 99.0552 20.2188 97.8367 20.2188H93.8671V29.6201C93.8811 29.8616 93.846 30.1034 93.7646 30.3283C93.6831 30.5532 93.5572 30.7556 93.3959 30.9211C93.0854 31.2222 92.6827 31.3843 92.2679 31.375C91.8677 31.3907 91.4779 31.2335 91.1826 30.9375C91.0107 30.7765 90.8749 30.5744 90.7858 30.3469C90.6966 30.1193 90.6565 29.8723 90.6686 29.6251V16.7189H97.8368C99.3027 16.7189 100.507 17.2189 101.45 18.2188C102.392 19.2188 102.863 20.5313 102.863 22.1564L102.863 29.6251Z" fill="#12141c"></path>
    <path d="M116.085 29.5938C116.099 29.836 116.062 30.0785 115.978 30.303C115.894 30.5276 115.765 30.7285 115.6 30.8906C115.292 31.1862 114.896 31.3475 114.486 31.3438C114.313 31.3437 114.141 31.3228 113.972 31.2814C113.667 31.1773 113.41 30.7815 113.201 30.0938C112.934 30.6495 112.629 30.9768 112.287 31.0758C111.799 31.2533 111.288 31.3437 110.773 31.3438C108.336 31.3438 106.584 30.2755 105.519 28.1388C104.918 26.9929 104.603 25.6945 104.605 24.3735C104.59 22.3423 105.25 20.3743 106.461 18.8351C106.966 18.1644 107.604 17.6281 108.326 17.2669C109.049 16.9056 109.837 16.7289 110.631 16.75C111.094 16.744 111.554 16.8342 111.987 17.0158C112.396 17.1929 112.696 17.6148 112.887 18.2814V15.4376C112.873 15.1968 112.908 14.9556 112.99 14.7314C113.071 14.5071 113.197 14.3054 113.358 14.1407C113.669 13.84 114.071 13.6783 114.486 13.6876C114.895 13.6841 115.292 13.8453 115.6 14.1407C115.765 14.3029 115.894 14.5038 115.978 14.7284C116.062 14.9529 116.099 15.1954 116.085 15.4376V29.5938ZM112.887 25.6745V22.11C112.887 20.9117 112.22 20.3125 110.888 20.3126C109.974 20.3126 109.317 20.5811 108.917 21.1182C108.203 22.0554 107.828 23.2459 107.86 24.4654C107.86 25.437 108.079 26.2118 108.517 26.79C109.031 27.4926 109.783 27.8439 110.773 27.8438C111.203 27.7994 111.611 27.616 111.944 27.317C112.573 26.8834 112.887 26.3359 112.887 25.6745Z" fill="#12141c"></path>
    <path d="M134.106 22.1564C134.133 24.0007 133.623 25.8064 132.65 27.3127C131.678 28.8133 130.314 29.9572 128.737 30.5939C127.402 31.1298 125.989 31.3946 124.567 31.3751H118.713V13.1877H124.71C127.299 13.1877 129.479 13.9585 131.25 15.5002C133.154 17.1672 134.106 19.3859 134.106 22.1564ZM130.907 22.1564C130.933 21.3402 130.768 20.5303 130.428 19.8032C130.089 19.076 129.585 18.4555 128.966 18.0002C127.823 17.1252 126.405 16.6876 124.71 16.6877H121.912V27.8752H124.567C125.597 27.8956 126.622 27.7158 127.595 27.3439C129.803 26.4275 130.907 24.6983 130.907 22.1564Z" fill="#12141c"></path>
    <path d="M145.187 18.4378C145.202 18.8652 145.081 19.2851 144.844 19.6253C144.722 19.805 144.562 19.95 144.379 20.0479C144.195 20.1458 143.992 20.1938 143.787 20.1878C143.644 20.1828 143.501 20.1672 143.359 20.1409C143.217 20.1147 143.074 20.099 142.931 20.094C142.069 20.0886 141.231 20.4088 140.56 21.0003C140.217 21.2795 139.937 21.6422 139.744 22.0598C139.551 22.4774 139.449 22.9384 139.446 23.4065V29.6252C139.46 29.8661 139.425 30.1073 139.344 30.3315C139.262 30.5557 139.136 30.7574 138.975 30.922C138.664 31.2229 138.262 31.3846 137.847 31.3752C137.447 31.3909 137.057 31.2337 136.762 30.9377C136.59 30.7767 136.454 30.5746 136.365 30.3471C136.276 30.1195 136.236 29.8725 136.248 29.6252V18.6566C136.243 18.422 136.284 18.189 136.369 17.9733C136.453 17.7576 136.579 17.5644 136.738 17.4066C137.056 17.0768 137.481 16.8972 137.919 16.9066C138.129 16.9074 138.336 16.9614 138.523 17.0644C138.711 17.1674 138.874 17.3166 139 17.5002C139.324 17.9886 139.482 18.5855 139.446 19.1878V19.2503C139.583 18.7215 139.836 18.2373 140.182 17.8397C140.529 17.4421 140.959 17.1432 141.436 16.969C141.98 16.7363 142.557 16.6094 143.141 16.594C143.399 16.5931 143.656 16.6246 143.908 16.6878C144.76 16.9173 145.186 17.5006 145.187 18.4378Z" fill="#12141c"></path>
    <path d="M150.156 14.1095C150.159 14.3415 150.12 14.5718 150.041 14.7871C149.962 15.0024 149.844 15.1983 149.696 15.3635C149.547 15.5288 149.369 15.66 149.174 15.7495C148.978 15.8391 148.768 15.8852 148.556 15.8852C148.344 15.8852 148.135 15.8391 147.939 15.7495C147.743 15.66 147.566 15.5288 147.417 15.3635C147.268 15.1983 147.151 15.0024 147.072 14.7871C146.993 14.5718 146.954 14.3415 146.957 14.1095C146.955 13.8812 146.995 13.6547 147.076 13.4442C147.157 13.2338 147.277 13.0439 147.428 12.8865C147.577 12.7243 147.752 12.5957 147.946 12.508C148.139 12.4203 148.347 12.3751 148.556 12.3751C148.766 12.3751 148.973 12.4203 149.167 12.508C149.361 12.5957 149.536 12.7243 149.685 12.8865C149.836 13.044 149.955 13.2338 150.037 13.4443C150.118 13.6547 150.158 13.8812 150.156 14.1095ZM150.156 29.6251C150.17 29.8659 150.134 30.1071 150.053 30.3313C149.972 30.5555 149.846 30.7572 149.685 30.9219C149.374 31.2226 148.971 31.3844 148.556 31.375C148.156 31.3907 147.766 31.2336 147.471 30.9375C147.299 30.7765 147.163 30.5745 147.074 30.3469C146.985 30.1193 146.945 29.8723 146.957 29.6251V18.7188C146.945 18.4716 146.985 18.2246 147.074 17.997C147.163 17.7695 147.299 17.5674 147.471 17.4064C147.767 17.1106 148.156 16.9535 148.556 16.9689C148.971 16.9597 149.374 17.1215 149.685 17.422C149.846 17.5868 149.971 17.7885 150.053 18.0127C150.134 18.2369 150.169 18.478 150.156 18.7188V29.6251Z" fill="#12141c"></path>
    <path d="M164.349 18.5851C164.346 18.8123 164.307 19.0373 164.235 19.2501L161.235 28.4375C160.531 30.542 159.437 31.6045 157.952 31.625C156.447 31.625 155.391 30.5625 154.782 28.4375L152.154 19.2188C152.099 19.0265 152.071 18.8265 152.069 18.6251C152.064 18.3895 152.106 18.1556 152.193 17.9397C152.279 17.7238 152.408 17.5311 152.569 17.375C152.881 17.051 153.296 16.8718 153.726 16.875C154.45 16.875 154.936 17.281 155.184 18.0929L156.895 23.7815C157.141 24.5939 157.388 25.4063 157.634 26.2187C157.864 26.9514 158.035 27.7041 158.147 28.4687C158.241 27.7393 158.649 26.2276 159.37 23.9336L161.227 18.0592C161.475 17.2701 161.952 16.8753 162.659 16.875C163.09 16.872 163.508 17.0409 163.833 17.3502C164 17.4992 164.133 17.688 164.222 17.902C164.312 18.1161 164.355 18.3498 164.349 18.5851Z" fill="#12141c"></path>
    <path d="M178 26.4999H168.69C169.261 27.5626 170.27 28.0939 171.717 28.0938C171.962 28.0855 172.206 28.1341 172.432 28.2364C172.659 28.3388 172.863 28.4925 173.031 28.6875C173.315 29.0162 173.469 29.4541 173.459 29.9063C173.464 30.1292 173.428 30.351 173.352 30.558C173.276 30.7649 173.161 30.9526 173.017 31.1094C172.841 31.2812 172.635 31.4126 172.412 31.4958C172.188 31.579 171.952 31.6123 171.717 31.5938C169.718 31.5938 168.1 30.9219 166.862 29.5782C165.624 28.2343 165.005 26.4478 165.006 24.2187C165.006 21.8649 165.61 20.0003 166.819 18.6251C168.028 17.25 169.68 16.5625 171.774 16.5626C173.792 16.5626 175.363 17.3855 176.486 19.0314C177.495 20.5108 178 22.3962 178 24.6875L178 26.4999ZM174.63 23.0002C174.519 22.2714 174.244 21.5841 173.83 21.0001C173.573 20.6855 173.255 20.438 172.9 20.2757C172.544 20.1134 172.159 20.0406 171.774 20.0625C169.775 20.0625 168.614 21.0417 168.29 23.0001L174.63 23.0002Z" fill="#12141c"></path>
</svg>

