<svg xmlns="http://www.w3.org/2000/svg" width="36" height="36" viewBox="0 0 36 36" fill="none">
  <path d="M34.7333 15.9973V28.9446C34.7333 34.6516 30.1056 39.278 24.3999 39.278H12.2543C8.1056 39.278 4.5266 36.832 2.8816 33.3046C2.24579 31.9392 1.91751 30.4508 1.91994 28.9446V15.9973C1.91994 10.2903 6.54727 5.66396 12.2533 5.66396H24.3999C26.3364 5.66055 28.2343 6.20457 29.8749 7.23329C32.7933 9.05996 34.7333 12.3026 34.7333 15.9973Z" fill="#0A5FFF"></path>
  <path d="M34.7333 15.9973V23.4213C30.6622 30.2497 24.7044 35.756 17.5769 39.2773H12.2543C8.1056 39.2773 4.5266 36.8313 2.8816 33.304C2.24589 31.9387 1.9176 30.4506 1.91993 28.9446V15.9973C1.91993 10.2903 6.54727 5.66396 12.2533 5.66396H24.3999C26.3364 5.66055 28.2343 6.20457 29.8749 7.23329C32.7933 9.05996 34.7333 12.3026 34.7333 15.9973Z" fill="#5C94FF"></path>
  <path d="M24.3999 5.66461C26.3363 5.661 28.2343 6.20479 29.8749 7.23327C25.6273 19.7063 15.5443 29.4813 2.8816 33.3039C2.24589 31.9387 1.9176 30.4506 1.91993 28.9446V15.9973C1.91993 10.2903 6.54727 5.66394 12.2533 5.66394L24.3999 5.66461Z" fill="#337AFF"></path>
  <path d="M12.2543 5.66467H18.8509C14.951 12.7294 9.0643 18.4949 1.91992 22.247V15.9973C1.91992 10.2903 6.54725 5.66467 12.2543 5.66467Z" fill="#0A5FFF"></path>
  <path d="M23.5347 14.9999C24.0865 14.9759 24.5532 15.4038 24.5772 15.9556L24.9129 23.6759C24.9244 23.9408 24.8302 24.1995 24.651 24.395L21.3121 28.0375L17.8198 31.8473C17.2178 32.504 16.1222 32.1051 16.0836 31.215L15.8347 25.4924C15.8108 24.9406 15.344 24.5128 14.7922 24.5367L9.07005 24.7855C8.17998 24.8242 7.68745 23.7675 8.28945 23.1107L11.7814 19.3014L15.1203 15.659C15.2995 15.4634 15.549 15.3471 15.814 15.3356L23.5347 14.9999Z" fill="white"></path>
</svg>

